<svg xmlns="http://www.w3.org/2000/svg" viewBox="0 0 2025 1533" width="675" height="511" role="img"><path d="M 217.438 98.471 C 216.372 99.277, 214.150 99.965, 212.500 100 C 210.850 100.035, 208.626 100.724, 207.559 101.532 C 206.491 102.339, 204.466 103.014, 203.059 103.032 C 201.651 103.049, 199.626 103.724, 198.559 104.532 C 197.491 105.339, 195.466 106.014, 194.059 106.032 C 192.651 106.049, 190.626 106.724, 189.559 107.532 C 188.491 108.339, 186.997 109, 186.237 109 C 185.478 109, 184.182 109.675, 183.357 110.500 C 182.532 111.325, 181.037 112, 180.036 112 C 179.034 112, 177.955 112.675, 177.638 113.500 C 177.322 114.325, 176.204 115, 175.154 115 C 174.104 115, 172.685 115.675, 172 116.500 C 171.315 117.325, 170.023 118.007, 169.128 118.016 C 168.232 118.025, 165.977 119.375, 164.114 121.016 C 162.252 122.657, 160.220 124, 159.597 124 C 158.975 124, 156.151 126.025, 153.321 128.500 C 150.492 130.975, 147.785 133, 147.304 133 C 146.122 133, 136.003 143.314, 135.990 144.531 C 135.985 145.064, 133.301 148.425, 130.027 152 C 126.753 155.575, 124.045 159.175, 124.009 160 C 123.974 160.825, 122.607 162.812, 120.972 164.417 C 119.338 166.021, 118 168.103, 118 169.044 C 118 169.985, 117.325 171.315, 116.500 172 C 115.675 172.685, 115 174.035, 115 175 C 115 175.965, 114.325 177.315, 113.500 178 C 112.675 178.685, 112 180.063, 112 181.063 C 112 182.064, 111.589 183.136, 111.087 183.447 C 109.674 184.320, 106 192.393, 106 194.625 C 106 195.721, 105.339 197.491, 104.532 198.559 C 103.724 199.626, 103.049 202.326, 103.032 204.559 C 103.014 206.791, 102.339 209.491, 101.532 210.559 C 100.642 211.736, 100.039 214.863, 100 218.500 C 99.961 222.137, 99.358 225.264, 98.468 226.441 C 96.241 229.386, 96.304 1305.496, 98.532 1308.441 C 99.492 1309.710, 100.011 1312.826, 100.032 1317.441 C 100.053 1322.057, 100.572 1325.172, 101.532 1326.441 C 102.339 1327.509, 103.014 1330.209, 103.032 1332.441 C 103.049 1334.674, 103.724 1337.374, 104.532 1338.441 C 105.339 1339.509, 106 1341.003, 106 1341.763 C 106 1342.522, 106.675 1343.818, 107.500 1344.643 C 108.325 1345.468, 109 1347.406, 109 1348.949 C 109 1350.492, 109.675 1352.315, 110.500 1353 C 111.325 1353.685, 112.007 1354.977, 112.016 1355.872 C 112.025 1356.768, 113.375 1359.023, 115.016 1360.886 C 116.657 1362.748, 118 1365.110, 118 1366.136 C 118 1367.161, 118.406 1368, 118.902 1368 C 119.398 1368, 120.261 1369.238, 120.819 1370.750 C 121.377 1372.263, 122.996 1374.807, 124.417 1376.406 C 125.838 1378.004, 127 1379.838, 127 1380.481 C 127 1381.125, 128.147 1382.729, 129.549 1384.046 C 130.951 1385.363, 133.693 1388.844, 135.643 1391.781 C 137.592 1394.718, 140.157 1397.507, 141.343 1397.979 C 142.530 1398.452, 146.200 1401.346, 149.500 1404.411 C 152.800 1407.476, 155.950 1410.006, 156.500 1410.033 C 157.050 1410.059, 159.058 1411.413, 160.962 1413.041 C 162.866 1414.668, 164.943 1416, 165.577 1416 C 166.210 1416, 168.252 1417.343, 170.114 1418.984 C 171.977 1420.625, 174.232 1421.975, 175.128 1421.984 C 176.023 1421.993, 177.315 1422.675, 178 1423.500 C 178.685 1424.325, 180.035 1425, 181 1425 C 181.965 1425, 183.315 1425.675, 184 1426.500 C 184.685 1427.325, 186.508 1428, 188.051 1428 C 189.594 1428, 191.532 1428.675, 192.357 1429.500 C 193.182 1430.325, 195.153 1431, 196.737 1431 C 198.322 1431, 200.491 1431.661, 201.559 1432.468 C 202.626 1433.276, 204.850 1433.965, 206.500 1434 C 208.150 1434.035, 210.374 1434.724, 211.441 1435.532 C 212.730 1436.506, 215.798 1437, 220.569 1437 C 225.688 1437, 228.108 1437.425, 228.981 1438.478 C 230.822 1440.695, 1796.369 1440.695, 1802.500 1438.477 C 1804.700 1437.681, 1808.075 1437.009, 1810 1436.983 C 1811.925 1436.957, 1814.374 1436.276, 1815.441 1435.468 C 1816.509 1434.661, 1819.209 1433.986, 1821.441 1433.968 C 1823.674 1433.951, 1826.374 1433.276, 1827.441 1432.468 C 1828.509 1431.661, 1830.678 1431, 1832.263 1431 C 1833.847 1431, 1835.818 1430.325, 1836.643 1429.500 C 1837.468 1428.675, 1839.406 1428, 1840.949 1428 C 1842.492 1428, 1844.315 1427.325, 1845 1426.500 C 1845.685 1425.675, 1846.977 1424.993, 1847.872 1424.984 C 1848.768 1424.975, 1851.023 1423.625, 1852.886 1421.984 C 1854.748 1420.343, 1856.790 1419, 1857.423 1419 C 1858.057 1419, 1860.134 1417.668, 1862.038 1416.041 C 1863.942 1414.413, 1866.039 1413.063, 1866.698 1413.041 C 1867.358 1413.018, 1869.158 1411.824, 1870.698 1410.386 C 1872.239 1408.948, 1874.298 1407.472, 1875.274 1407.105 C 1877.537 1406.254, 1892.990 1390.993, 1893.030 1389.569 C 1893.047 1388.981, 1895.746 1385.575, 1899.027 1382 C 1902.308 1378.425, 1904.995 1375.007, 1904.997 1374.406 C 1904.998 1373.804, 1906.135 1372.004, 1907.522 1370.406 C 1910.528 1366.943, 1917 1353.715, 1917 1351.033 C 1917 1349.994, 1917.675 1348.468, 1918.500 1347.643 C 1919.325 1346.818, 1920 1345.522, 1920 1344.763 C 1920 1344.003, 1920.661 1342.509, 1921.468 1341.441 C 1922.276 1340.374, 1922.951 1338.349, 1922.968 1336.941 C 1922.986 1335.534, 1923.661 1333.509, 1924.468 1332.441 C 1925.276 1331.374, 1925.951 1328.688, 1925.968 1326.473 C 1925.986 1324.257, 1926.788 1321.332, 1927.750 1319.973 C 1929.412 1317.625, 1929.500 1289.677, 1929.500 767 C 1929.500 244.323, 1929.412 216.375, 1927.750 214.027 C 1926.731 212.587, 1926 209.739, 1926 207.206 C 1926 204.674, 1925.373 202.231, 1924.500 201.357 C 1923.675 200.532, 1923 198.828, 1923 197.569 C 1923 196.311, 1921.650 192.752, 1920 189.660 C 1918.350 186.568, 1917 183.354, 1917 182.519 C 1917 181.684, 1916.559 181, 1916.019 181 C 1915.480 181, 1914.729 179.767, 1914.350 178.260 C 1913.972 176.753, 1913.064 174.921, 1912.331 174.188 C 1911.599 173.456, 1911 172.044, 1911 171.051 C 1911 170.058, 1910.325 168.685, 1909.500 168 C 1908.675 167.315, 1907.996 166.248, 1907.991 165.628 C 1907.986 165.007, 1905.973 162.250, 1903.518 159.500 C 1901.063 156.750, 1899.042 153.898, 1899.027 153.162 C 1898.993 151.471, 1871.741 124, 1870.098 124 C 1869.430 124, 1867.222 122.696, 1865.191 121.101 C 1863.161 119.507, 1860.487 117.902, 1859.250 117.534 C 1858.012 117.166, 1857 116.486, 1857 116.022 C 1857 115.558, 1854.977 114.199, 1852.506 113.003 C 1850.034 111.806, 1847.757 110.416, 1847.447 109.913 C 1847.136 109.411, 1845.591 109, 1844.012 109 C 1842.434 109, 1840.468 108.325, 1839.643 107.500 C 1838.818 106.675, 1837.522 106, 1836.763 106 C 1836.003 106, 1834.509 105.339, 1833.441 104.532 C 1832.374 103.724, 1830.349 103.049, 1828.941 103.032 C 1827.534 103.014, 1825.509 102.339, 1824.441 101.532 C 1823.374 100.724, 1821.093 100.049, 1819.372 100.032 C 1817.652 100.014, 1815.684 99.324, 1814.999 98.499 C 1813.127 96.243, 220.420 96.215, 217.438 98.471 M 228.443 160.467 C 227.374 161.275, 225.444 161.951, 224.154 161.968 C 222.088 161.996, 219 163.268, 214 166.148 C 213.175 166.624, 211.825 167.267, 211 167.579 C 210.175 167.890, 208.825 168.543, 208 169.031 C 207.175 169.518, 204.141 171.072, 201.258 172.484 C 195.445 175.331, 174.011 195.336, 173.984 197.941 C 173.975 198.798, 172.625 201.023, 170.984 202.886 C 169.343 204.748, 168 206.917, 168 207.707 C 168 208.497, 167.325 209.818, 166.500 210.643 C 165.675 211.468, 164.986 213.348, 164.968 214.821 C 164.951 216.295, 164.276 218.374, 163.468 219.441 C 162.661 220.509, 161.986 223.209, 161.968 225.441 C 161.951 227.674, 161.276 230.374, 160.468 231.441 C 158.212 234.424, 158.244 1307.127, 160.500 1309 C 161.325 1309.685, 162 1311.710, 162 1313.500 C 162 1315.290, 162.675 1317.315, 163.500 1318 C 164.325 1318.685, 165 1319.761, 165 1320.391 C 165 1321.021, 166.788 1324.904, 168.973 1329.018 C 171.159 1333.133, 173.401 1337.521, 173.956 1338.768 C 175.096 1341.333, 190.817 1357, 192.250 1357 C 192.762 1357, 195.551 1359.025, 198.448 1361.500 C 201.345 1363.975, 204.455 1366, 205.358 1366 C 206.261 1366, 207 1366.441, 207 1366.981 C 207 1367.520, 208.233 1368.271, 209.740 1368.650 C 211.247 1369.028, 213.079 1369.936, 213.812 1370.669 C 214.544 1371.401, 216.573 1372.003, 218.321 1372.006 C 220.070 1372.010, 222.789 1372.685, 224.364 1373.506 C 225.940 1374.328, 228.318 1375, 229.649 1375 C 230.981 1375, 233.180 1375.727, 234.536 1376.616 C 236.800 1378.099, 264.793 1378.169, 576.251 1377.467 C 762.838 1377.047, 917.525 1376.692, 920 1376.680 C 922.475 1376.667, 1086.950 1376.640, 1285.500 1376.620 C 1729.874 1376.575, 1796.209 1376.206, 1800.700 1373.750 C 1802.461 1372.787, 1804.993 1372, 1806.328 1372 C 1807.663 1372, 1809.315 1371.325, 1810 1370.500 C 1810.685 1369.675, 1812.508 1369, 1814.051 1369 C 1815.594 1369, 1817.532 1368.325, 1818.357 1367.500 C 1819.182 1366.675, 1820.503 1366, 1821.293 1366 C 1822.083 1366, 1824.252 1364.657, 1826.114 1363.016 C 1827.977 1361.375, 1829.966 1360.025, 1830.536 1360.016 C 1832.236 1359.990, 1852 1340.539, 1852 1338.892 C 1852 1338.057, 1853.350 1336.081, 1855 1334.500 C 1856.650 1332.919, 1858.014 1330.923, 1858.032 1330.063 C 1858.049 1329.203, 1858.724 1327.626, 1859.532 1326.559 C 1860.339 1325.491, 1861 1323.997, 1861 1323.237 C 1861 1322.478, 1861.675 1321.182, 1862.500 1320.357 C 1863.325 1319.532, 1864 1317.748, 1864 1316.393 C 1864 1315.038, 1864.744 1312.794, 1865.654 1311.405 C 1867.188 1309.065, 1867.304 1271.098, 1867.245 790.190 C 1867.170 162.913, 1867.355 224.498, 1865.535 222.678 C 1864.730 221.873, 1863.881 219.495, 1863.650 217.395 C 1863.418 215.295, 1862.727 213.409, 1862.115 213.205 C 1861.502 213.001, 1861 212.210, 1861 211.447 C 1861 209.426, 1856.936 201.898, 1854.285 199.010 C 1853.028 197.641, 1852 196.038, 1852 195.447 C 1852 193.966, 1835.141 177, 1833.669 177 C 1833.015 177, 1831.316 175.921, 1829.893 174.602 C 1828.471 173.283, 1824.772 171.005, 1821.674 169.539 C 1818.575 168.073, 1815.779 166.452, 1815.461 165.937 C 1815.143 165.422, 1813.645 165, 1812.132 165 C 1810.620 165, 1808.509 164.339, 1807.441 163.532 C 1806.374 162.724, 1804.375 162.033, 1803 161.996 C 1801.625 161.959, 1799.375 161.287, 1798 160.501 C 1794.159 158.308, 231.343 158.273, 228.443 160.467" fill="#08090a" fill-rule="evenodd"/><path d="M 556.153 203.250 C 555.299 204.106, 549.575 204.664, 537.982 205.021 C 526.559 205.373, 520.658 205.942, 519.829 206.771 C 519.153 207.447, 516.102 208.016, 513.050 208.035 C 509.998 208.055, 506.375 208.714, 505 209.500 C 503.625 210.286, 500.700 210.959, 498.500 210.996 C 496.300 211.033, 493.626 211.724, 492.559 212.532 C 491.491 213.339, 488.647 214, 486.237 214 C 483.677 214, 481.234 214.623, 480.357 215.500 C 479.516 216.341, 477.021 217.014, 474.679 217.032 C 472.380 217.049, 469.626 217.724, 468.559 218.532 C 467.491 219.339, 465.466 220.014, 464.059 220.032 C 462.651 220.049, 460.626 220.724, 459.559 221.532 C 458.491 222.339, 456.466 223.014, 455.059 223.032 C 453.651 223.049, 451.626 223.724, 450.559 224.532 C 449.491 225.339, 447.642 226, 446.450 226 C 445.257 226, 441.752 227.350, 438.660 229 C 435.568 230.650, 432.017 232.014, 430.769 232.032 C 429.521 232.049, 427.626 232.724, 426.559 233.532 C 425.491 234.339, 423.852 235, 422.916 235 C 421.980 235, 420.955 235.675, 420.638 236.500 C 420.322 237.325, 418.961 238, 417.615 238 C 416.268 238, 415.017 238.378, 414.833 238.840 C 414.650 239.302, 409.202 242.286, 402.727 245.472 C 396.253 248.657, 390.714 251.655, 390.418 252.132 C 390.123 252.609, 389.121 253.007, 388.191 253.016 C 387.261 253.025, 384.977 254.375, 383.114 256.016 C 381.252 257.657, 379.227 259.007, 378.614 259.016 C 378.002 259.025, 375.977 260.375, 374.114 262.016 C 372.252 263.657, 370.226 265, 369.612 265 C 368.998 265, 366.321 267.025, 363.664 269.500 C 361.006 271.975, 358.379 274, 357.825 274 C 357.272 274, 354.449 276.025, 351.552 278.500 C 348.655 280.975, 345.796 283, 345.199 283 C 343.698 283, 295.005 331.733, 294.977 333.264 C 294.965 333.944, 292.700 336.975, 289.943 340 C 287.186 343.025, 284.222 346.810, 283.356 348.411 C 282.490 350.012, 280.706 352.483, 279.391 353.901 C 278.076 355.319, 277 356.869, 277 357.346 C 277 357.822, 275.650 359.917, 274 362 C 272.350 364.083, 271 366.216, 271 366.738 C 271 367.261, 269.838 368.996, 268.417 370.594 C 266.996 372.193, 265.377 374.738, 264.819 376.250 C 264.261 377.762, 263.398 379, 262.902 379 C 262.406 379, 262 379.723, 262 380.606 C 262 381.489, 260.886 383.536, 259.524 385.154 C 258.162 386.773, 255.818 390.775, 254.316 394.049 C 252.813 397.322, 251.227 400, 250.792 400 C 250.356 400, 250 400.868, 250 401.929 C 250 402.989, 249.401 404.456, 248.669 405.188 C 247.936 405.921, 247.028 407.753, 246.650 409.260 C 246.271 410.767, 245.520 412, 244.981 412 C 244.441 412, 244 412.684, 244 413.519 C 244 414.354, 242.650 417.568, 241 420.660 C 239.350 423.752, 238 426.838, 238 427.518 C 238 428.199, 237.325 429.315, 236.500 430 C 235.675 430.685, 235 432.323, 235 433.641 C 235 434.959, 233.650 438.568, 232 441.660 C 230.350 444.752, 229 448.257, 229 449.450 C 229 450.642, 228.339 452.491, 227.532 453.559 C 226.724 454.626, 226.049 456.651, 226.032 458.059 C 226.014 459.466, 225.339 461.491, 224.532 462.559 C 223.724 463.626, 223.049 465.651, 223.032 467.059 C 223.014 468.466, 222.339 470.491, 221.532 471.559 C 220.724 472.626, 220.049 474.907, 220.032 476.628 C 220.014 478.348, 219.325 480.315, 218.500 481 C 217.624 481.727, 216.985 483.961, 216.965 486.372 C 216.945 488.643, 216.286 491.625, 215.500 493 C 214.714 494.375, 214.055 496.992, 214.035 498.816 C 214.016 500.639, 213.532 503.006, 212.960 504.074 C 212.388 505.143, 211.516 508.826, 211.022 512.259 C 210.527 515.691, 209.665 520.525, 209.105 523 C 208.545 525.475, 208.052 530.650, 208.008 534.500 C 207.962 538.595, 207.336 542.538, 206.500 544 C 204.728 547.100, 204.437 621.237, 206.164 629.500 C 206.739 632.250, 207.426 637.854, 207.691 641.954 C 207.956 646.054, 208.809 650.316, 209.586 651.426 C 210.443 652.650, 211 655.938, 211 659.772 C 211 663.252, 211.599 667.314, 212.331 668.800 C 213.063 670.285, 213.756 673.250, 213.871 675.389 C 213.987 677.528, 214.738 680.216, 215.541 681.362 C 216.343 682.507, 217.014 685.257, 217.032 687.473 C 217.049 689.688, 217.724 692.374, 218.532 693.441 C 219.339 694.509, 220.014 696.534, 220.032 697.941 C 220.049 699.349, 220.724 701.374, 221.532 702.441 C 222.339 703.509, 223.014 705.534, 223.032 706.941 C 223.049 708.349, 223.724 710.374, 224.532 711.441 C 225.339 712.509, 226 714.556, 226 715.991 C 226 717.426, 226.485 719.085, 227.078 719.678 C 227.670 720.270, 228.531 722.273, 228.990 724.128 C 230.235 729.160, 232.340 734.331, 233.750 735.821 C 234.438 736.548, 235 738.054, 235 739.167 C 235 740.280, 235.630 742.386, 236.399 743.846 C 241.361 753.259, 247 765.342, 247 766.560 C 247 767.352, 247.441 768, 247.981 768 C 248.520 768, 249.271 769.233, 249.650 770.740 C 250.028 772.247, 250.936 774.079, 251.669 774.812 C 252.401 775.544, 253 776.731, 253 777.449 C 253 778.167, 253.675 779.315, 254.500 780 C 255.325 780.685, 256.007 781.977, 256.016 782.872 C 256.025 783.768, 257.375 786.023, 259.016 787.886 C 260.657 789.748, 262 792.110, 262 793.136 C 262 794.161, 262.406 795, 262.902 795 C 263.398 795, 264.261 796.237, 264.819 797.750 C 265.377 799.262, 266.996 801.807, 268.417 803.406 C 269.838 805.004, 271.007 806.804, 271.016 807.406 C 271.025 808.007, 272.375 810.023, 274.016 811.886 C 275.657 813.748, 277.007 815.773, 277.016 816.386 C 277.025 816.998, 278.375 819.023, 280.016 820.886 C 281.657 822.748, 283.017 824.773, 283.037 825.386 C 283.057 825.998, 285.753 829.425, 289.027 833 C 292.301 836.575, 294.985 840.053, 294.990 840.728 C 295.004 842.428, 346.400 893.994, 348.115 894.027 C 348.877 894.042, 351.750 896.063, 354.500 898.518 C 357.250 900.973, 359.962 902.986, 360.527 902.991 C 361.092 902.996, 363.032 904.350, 364.839 906 C 366.645 907.650, 368.658 909.012, 369.312 909.027 C 369.965 909.042, 372.750 911.063, 375.500 913.518 C 378.250 915.973, 381.302 917.986, 382.281 917.991 C 383.261 917.996, 384.322 918.675, 384.638 919.500 C 384.955 920.325, 385.996 921, 386.952 921 C 387.908 921, 389.450 921.839, 390.378 922.866 C 391.307 923.892, 397.789 927.570, 404.783 931.040 C 411.777 934.511, 417.650 937.721, 417.833 938.175 C 418.017 938.629, 418.798 939, 419.569 939 C 420.789 939, 427.342 942.008, 436.154 946.613 C 437.614 947.376, 439.570 948, 440.500 948 C 441.430 948, 443.498 948.675, 445.096 949.500 C 446.693 950.325, 449.307 951.675, 450.904 952.500 C 452.502 953.325, 454.767 954, 455.939 954 C 457.111 954, 459.067 954.646, 460.285 955.436 C 461.503 956.226, 464.396 957.056, 466.712 957.282 C 469.029 957.508, 471.526 958.191, 472.261 958.801 C 472.995 959.411, 475.375 959.998, 477.548 960.105 C 479.722 960.212, 482.497 960.908, 483.715 961.650 C 484.933 962.393, 486.958 963.016, 488.215 963.035 C 489.472 963.055, 491.625 963.714, 493 964.500 C 494.375 965.286, 497.776 965.945, 500.559 965.965 C 503.407 965.985, 506.466 966.642, 507.559 967.468 C 508.682 968.317, 511.734 968.950, 514.800 968.968 C 517.714 968.986, 521.423 969.685, 523.042 970.522 C 525.121 971.597, 530.168 972.174, 540.242 972.488 C 548.084 972.732, 556.072 973.398, 557.993 973.966 C 561.989 975.149, 578.540 975.165, 597.500 974.006 C 604.650 973.569, 617.121 972.942, 625.214 972.613 C 634.171 972.249, 641.606 971.431, 644.214 970.522 C 646.571 969.701, 650.750 969.008, 653.500 968.983 C 656.280 968.957, 659.362 968.284, 660.441 967.468 C 661.591 966.598, 664.647 965.987, 667.941 965.968 C 671.235 965.949, 674.291 965.338, 675.441 964.468 C 676.509 963.661, 678.984 962.984, 680.941 962.965 C 682.899 962.945, 685.625 962.286, 687 961.500 C 688.375 960.714, 691.075 960.039, 693 960 C 694.925 959.961, 697.625 959.286, 699 958.500 C 700.375 957.714, 702.625 957.041, 704 957.004 C 705.375 956.967, 707.374 956.276, 708.441 955.468 C 709.509 954.661, 711.534 953.986, 712.941 953.968 C 714.349 953.951, 716.374 953.276, 717.441 952.468 C 718.509 951.661, 720.591 951, 722.069 951 C 723.546 951, 725.315 950.325, 726 949.500 C 726.685 948.675, 727.977 947.986, 728.872 947.968 C 729.768 947.951, 731.374 947.276, 732.441 946.468 C 733.509 945.661, 735.003 945, 735.763 945 C 736.522 945, 737.818 944.325, 738.643 943.500 C 739.468 942.675, 741.094 942, 742.256 942 C 744.580 942, 752.657 938.364, 753.553 936.913 C 753.864 936.411, 754.936 936, 755.937 936 C 756.937 936, 758.315 935.325, 759 934.500 C 759.685 933.675, 760.942 933, 761.794 933 C 762.646 933, 764.053 932.409, 764.921 931.688 C 765.790 930.966, 768.525 929.541, 771 928.521 C 773.475 927.501, 777.161 925.391, 779.191 923.833 C 781.222 922.275, 783.536 921, 784.334 921 C 785.133 921, 786.045 920.325, 786.362 919.500 C 786.678 918.675, 787.739 917.996, 788.719 917.991 C 789.698 917.986, 792.750 915.973, 795.500 913.518 C 798.250 911.063, 801.288 909.042, 802.250 909.027 C 803.212 909.012, 804 908.580, 804 908.067 C 804 907.554, 805.013 906.814, 806.250 906.421 C 807.487 906.028, 811.419 903.073, 814.986 899.854 C 818.553 896.634, 822.023 894, 822.696 894 C 824.667 894, 872.175 845.797, 873.253 842.704 C 874.042 840.442, 874.751 839.950, 876.867 840.195 L 879.500 840.500 879.361 898.500 C 879.219 958.013, 877.725 994.229, 875.294 997.151 C 874.590 997.996, 874.016 1002.220, 873.916 1007.283 C 873.808 1012.754, 873.249 1016.620, 872.404 1017.733 C 871.667 1018.705, 871.049 1022.001, 871.032 1025.059 C 871.013 1028.353, 870.402 1031.409, 869.532 1032.559 C 868.724 1033.626, 868.035 1035.850, 868 1037.500 C 867.965 1039.150, 867.276 1041.374, 866.468 1042.441 C 865.661 1043.509, 865 1046.010, 865 1048 C 865 1049.990, 864.339 1052.491, 863.532 1053.559 C 862.724 1054.626, 862.049 1056.651, 862.032 1058.059 C 862.014 1059.466, 861.339 1061.491, 860.532 1062.559 C 859.724 1063.626, 859.049 1065.232, 859.032 1066.128 C 859.014 1067.023, 858.325 1068.315, 857.500 1069 C 856.675 1069.685, 856 1071.308, 856 1072.608 C 856 1074.606, 852.024 1083.768, 848.887 1089 C 848.392 1089.825, 847.730 1091.175, 847.415 1092 C 847.101 1092.825, 846.203 1094.694, 845.422 1096.154 C 844.640 1097.614, 844 1099.720, 844 1100.833 C 844 1101.946, 843.282 1103.576, 842.404 1104.453 C 840.779 1106.078, 836.848 1112.650, 835.031 1116.779 C 834.479 1118.032, 832.896 1120.277, 831.514 1121.769 C 830.131 1123.260, 829 1124.948, 829 1125.520 C 829 1126.093, 825.645 1130.147, 821.544 1134.531 C 817.444 1138.914, 814.069 1142.958, 814.044 1143.518 C 813.987 1144.826, 793.786 1164.988, 792.483 1165.037 C 791.942 1165.057, 788.575 1167.753, 785 1171.027 C 781.425 1174.301, 778.050 1176.992, 777.500 1177.006 C 776.950 1177.020, 774.977 1178.375, 773.114 1180.016 C 771.252 1181.657, 769.223 1183, 768.604 1183 C 767.986 1183, 766.260 1184.131, 764.769 1185.514 C 763.277 1186.896, 761.032 1188.479, 759.779 1189.031 C 755.952 1190.715, 748.713 1194.950, 746.980 1196.518 C 746.080 1197.333, 744.547 1198, 743.576 1198 C 742.015 1198, 738.729 1199.424, 734 1202.148 C 733.175 1202.624, 731.825 1203.270, 731 1203.585 C 730.175 1203.899, 728.306 1204.797, 726.846 1205.578 C 725.386 1206.360, 723.136 1207.014, 721.846 1207.032 C 720.556 1207.049, 718.626 1207.724, 717.559 1208.532 C 716.491 1209.339, 714.761 1210, 713.713 1210 C 712.666 1210, 710.389 1210.741, 708.654 1211.648 C 701.179 1215.552, 700.072 1216.002, 697.846 1216.032 C 696.556 1216.049, 694.626 1216.724, 693.559 1217.532 C 692.491 1218.339, 689.888 1219, 687.774 1219 C 685.659 1219, 682.933 1219.642, 681.715 1220.426 C 680.497 1221.211, 677.250 1221.961, 674.500 1222.093 C 671.750 1222.225, 668.285 1222.933, 666.800 1223.667 C 665.314 1224.400, 661.714 1225.014, 658.800 1225.032 C 655.734 1225.050, 652.682 1225.683, 651.559 1226.532 C 650.162 1227.589, 646.800 1228.012, 639.559 1228.044 C 633.426 1228.071, 627.939 1228.650, 625.500 1229.529 C 619.544 1231.675, 552.278 1231.677, 549.441 1229.532 C 548.125 1228.536, 544.924 1228.049, 539.500 1228.017 C 535.100 1227.991, 529.700 1227.321, 527.500 1226.529 C 525.300 1225.736, 521.192 1225.068, 518.372 1225.044 C 515.552 1225.020, 511.629 1224.325, 509.654 1223.500 C 507.680 1222.675, 504.111 1222, 501.723 1222 C 499.336 1222, 496.509 1221.339, 495.441 1220.532 C 494.374 1219.724, 491.674 1219.049, 489.441 1219.032 C 487.209 1219.014, 484.509 1218.339, 483.441 1217.532 C 482.374 1216.724, 479.674 1216.049, 477.441 1216.032 C 475.209 1216.014, 472.509 1215.339, 471.441 1214.532 C 470.374 1213.724, 468.349 1213.049, 466.941 1213.032 C 465.534 1213.014, 463.509 1212.339, 462.441 1211.532 C 461.374 1210.724, 459.349 1210.049, 457.941 1210.032 C 456.534 1210.014, 454.509 1209.339, 453.441 1208.532 C 452.374 1207.724, 450.349 1207.049, 448.941 1207.032 C 447.534 1207.014, 445.509 1206.339, 444.441 1205.532 C 443.374 1204.724, 441.349 1204.049, 439.941 1204.032 C 438.534 1204.014, 436.509 1203.339, 435.441 1202.532 C 434.374 1201.724, 432.768 1201.049, 431.872 1201.032 C 430.977 1201.014, 429.685 1200.325, 429 1199.500 C 428.315 1198.675, 426.492 1198, 424.949 1198 C 423.406 1198, 421.544 1197.401, 420.812 1196.669 C 420.079 1195.936, 418.247 1195.028, 416.740 1194.650 C 415.233 1194.271, 414 1193.520, 414 1192.981 C 414 1192.441, 413.361 1192, 412.580 1192 C 410.431 1192, 396.843 1184.894, 394.010 1182.289 C 392.641 1181.030, 390.755 1180, 389.819 1180 C 388.884 1180, 387.857 1179.578, 387.539 1179.063 C 387.221 1178.548, 384.427 1176.928, 381.331 1175.463 C 378.235 1173.999, 374.790 1171.951, 373.675 1170.912 C 372.560 1169.873, 370.714 1168.730, 369.574 1168.372 C 368.433 1168.014, 366.177 1166.434, 364.560 1164.861 C 362.943 1163.287, 361.100 1162, 360.463 1162 C 359.827 1162, 358.225 1161.057, 356.903 1159.905 C 355.581 1158.752, 353.158 1157.112, 351.518 1156.259 C 349.878 1155.406, 346.728 1152.979, 344.518 1150.865 C 342.308 1148.751, 340.050 1147.012, 339.500 1147.001 C 338.950 1146.989, 335.575 1144.301, 332 1141.027 C 328.425 1137.753, 325.036 1135.057, 324.468 1135.037 C 323.901 1135.017, 316.476 1128.260, 307.968 1120.023 C 290.424 1103.035, 289.667 1102.685, 283.703 1108.792 C 281.666 1110.878, 280 1113.067, 280 1113.657 C 280 1114.246, 278.657 1116.252, 277.016 1118.114 C 275.375 1119.977, 274.013 1121.950, 273.989 1122.500 C 273.965 1123.050, 271.937 1125.750, 269.482 1128.500 C 267.027 1131.250, 265.014 1133.901, 265.009 1134.392 C 265.004 1134.883, 262.975 1137.655, 260.500 1140.552 C 258.025 1143.449, 256 1146.249, 256 1146.774 C 256 1147.299, 254.657 1149.252, 253.016 1151.114 C 251.375 1152.977, 250.025 1154.885, 250.016 1155.356 C 250.007 1155.827, 248.650 1157.917, 247 1160 C 245.350 1162.083, 243.988 1164.173, 243.973 1164.644 C 243.958 1165.115, 241.937 1167.750, 239.482 1170.500 C 231.845 1179.055, 232.358 1180.658, 247.701 1196.164 C 254.686 1203.224, 260.873 1209.013, 261.451 1209.029 C 262.028 1209.044, 266.325 1212.668, 271 1217.081 C 275.675 1221.494, 280.842 1225.822, 282.482 1226.698 C 284.122 1227.574, 287.272 1230.021, 289.482 1232.135 C 291.692 1234.249, 293.885 1235.983, 294.356 1235.989 C 294.827 1235.995, 296.917 1237.350, 299 1239 C 301.083 1240.650, 303.173 1242.012, 303.644 1242.027 C 304.115 1242.042, 306.750 1244.063, 309.500 1246.518 C 312.250 1248.973, 314.993 1250.986, 315.594 1250.991 C 316.196 1250.996, 317.903 1252.043, 319.386 1253.318 C 320.870 1254.593, 326.002 1257.610, 330.792 1260.023 C 335.581 1262.435, 340.620 1265.442, 341.990 1266.705 C 343.359 1267.967, 345.217 1269, 346.117 1269 C 347.018 1269, 348.315 1269.675, 349 1270.500 C 349.685 1271.325, 351.035 1272, 352 1272 C 352.965 1272, 354.315 1272.675, 355 1273.500 C 355.685 1274.325, 357.035 1275, 358 1275 C 358.965 1275, 360.315 1275.675, 361 1276.500 C 361.685 1277.325, 363.035 1278, 364 1278 C 364.965 1278, 366.315 1278.675, 367 1279.500 C 367.685 1280.325, 369.035 1281, 370 1281 C 370.965 1281, 372.315 1281.675, 373 1282.500 C 373.685 1283.325, 375.508 1284, 377.051 1284 C 378.594 1284, 380.532 1284.675, 381.357 1285.500 C 382.182 1286.325, 383.478 1287, 384.237 1287 C 384.997 1287, 386.491 1287.661, 387.559 1288.468 C 388.626 1289.276, 390.232 1289.951, 391.128 1289.968 C 392.023 1289.986, 393.315 1290.675, 394 1291.500 C 394.685 1292.325, 396.454 1293, 397.931 1293 C 399.409 1293, 401.491 1293.661, 402.559 1294.468 C 403.626 1295.276, 405.232 1295.951, 406.128 1295.968 C 407.023 1295.986, 408.315 1296.675, 409 1297.500 C 409.685 1298.325, 411.454 1299, 412.931 1299 C 414.409 1299, 416.491 1299.661, 417.559 1300.468 C 418.626 1301.276, 420.651 1301.951, 422.059 1301.968 C 423.466 1301.986, 425.491 1302.661, 426.559 1303.468 C 427.626 1304.276, 429.651 1304.951, 431.059 1304.968 C 432.466 1304.986, 434.491 1305.661, 435.559 1306.468 C 436.626 1307.276, 438.850 1307.965, 440.500 1308 C 442.150 1308.035, 444.374 1308.724, 445.441 1309.532 C 446.509 1310.339, 449.010 1311, 451 1311 C 452.990 1311, 455.491 1311.661, 456.559 1312.468 C 457.626 1313.276, 460.300 1313.967, 462.500 1314.004 C 464.700 1314.041, 467.625 1314.714, 469 1315.500 C 470.375 1316.286, 473.776 1316.945, 476.559 1316.965 C 479.407 1316.985, 482.466 1317.642, 483.559 1318.468 C 484.685 1319.320, 487.810 1319.965, 491 1320.004 C 494.025 1320.041, 497.625 1320.714, 499 1321.500 C 500.444 1322.326, 504.270 1322.944, 508.059 1322.965 C 512.229 1322.987, 515.325 1323.535, 516.559 1324.468 C 517.951 1325.521, 521.272 1325.945, 528.300 1325.968 C 535.108 1325.990, 539.007 1326.469, 541.073 1327.538 C 545.324 1329.736, 631.881 1329.630, 636.153 1327.421 C 637.853 1326.542, 642.066 1325.983, 647.200 1325.956 C 651.794 1325.932, 657.286 1325.269, 659.500 1324.471 C 661.700 1323.679, 666.425 1323.009, 670 1322.983 C 674.102 1322.954, 677.216 1322.395, 678.441 1321.468 C 679.675 1320.535, 682.771 1319.987, 686.941 1319.965 C 690.730 1319.944, 694.556 1319.326, 696 1318.500 C 697.375 1317.714, 700.750 1317.039, 703.500 1317 C 706.250 1316.961, 709.625 1316.286, 711 1315.500 C 712.375 1314.714, 715.300 1314.041, 717.500 1314.004 C 719.700 1313.967, 722.374 1313.276, 723.441 1312.468 C 724.509 1311.661, 726.534 1310.986, 727.941 1310.968 C 729.349 1310.951, 731.374 1310.276, 732.441 1309.468 C 733.509 1308.661, 735.984 1307.984, 737.941 1307.965 C 739.899 1307.945, 742.625 1307.286, 744 1306.500 C 745.375 1305.714, 747.682 1305.055, 749.128 1305.035 C 750.573 1305.016, 752.315 1304.325, 753 1303.500 C 753.685 1302.675, 755.358 1302, 756.718 1302 C 758.078 1302, 760.498 1301.325, 762.096 1300.500 C 763.693 1299.675, 766.307 1298.325, 767.904 1297.500 C 769.502 1296.675, 771.334 1296, 771.976 1296 C 772.618 1296, 773.818 1295.325, 774.643 1294.500 C 775.468 1293.675, 777.054 1293, 778.167 1293 C 779.952 1293, 783.121 1291.663, 788 1288.852 C 788.825 1288.376, 790.175 1287.711, 791 1287.373 C 795.960 1285.343, 801.067 1282.700, 801.553 1281.913 C 801.864 1281.411, 802.936 1281, 803.937 1281 C 804.937 1281, 806.315 1280.325, 807 1279.500 C 807.685 1278.675, 808.982 1278, 809.883 1278 C 810.783 1278, 812.684 1276.921, 814.107 1275.602 C 815.529 1274.283, 819.167 1272.034, 822.190 1270.603 C 825.214 1269.173, 828.536 1267.065, 829.574 1265.919 C 830.611 1264.773, 832.819 1263.261, 834.480 1262.561 C 836.141 1261.860, 839.300 1259.657, 841.500 1257.666 C 843.700 1255.675, 845.950 1254.027, 846.500 1254.004 C 847.050 1253.981, 849.300 1252.357, 851.500 1250.396 C 853.700 1248.435, 857.177 1245.744, 859.227 1244.417 C 864.804 1240.806, 896.402 1208.739, 900.568 1202.463 C 902.563 1199.458, 904.601 1197, 905.097 1197 C 905.594 1197, 906.012 1196.213, 906.027 1195.250 C 906.042 1194.287, 908.063 1191.250, 910.518 1188.500 C 912.973 1185.750, 914.986 1182.998, 914.991 1182.386 C 914.996 1181.773, 916.343 1179.748, 917.984 1177.886 C 919.625 1176.023, 920.975 1174.007, 920.984 1173.406 C 920.993 1172.804, 922.136 1171.004, 923.525 1169.406 C 924.914 1167.807, 927.218 1164.051, 928.645 1161.059 C 930.072 1158.066, 931.845 1155.012, 932.586 1154.271 C 934.577 1152.280, 939 1143.121, 939 1140.989 C 939 1139.974, 939.675 1138.468, 940.500 1137.643 C 941.325 1136.818, 942 1135.667, 942 1135.086 C 942 1134.159, 945.391 1126.925, 949.613 1118.846 C 950.376 1117.386, 951 1115.334, 951 1114.287 C 951 1113.239, 951.661 1111.509, 952.468 1110.441 C 953.276 1109.374, 953.951 1107.768, 953.968 1106.872 C 953.986 1105.977, 954.675 1104.685, 955.500 1104 C 956.325 1103.315, 957 1101.290, 957 1099.500 C 957 1097.710, 957.675 1095.685, 958.500 1095 C 959.325 1094.315, 960 1092.546, 960 1091.069 C 960 1089.591, 960.661 1087.509, 961.468 1086.441 C 962.276 1085.374, 962.951 1082.674, 962.968 1080.441 C 962.986 1078.209, 963.661 1075.509, 964.468 1074.441 C 965.276 1073.374, 965.951 1070.674, 965.968 1068.441 C 965.986 1066.209, 966.661 1063.509, 967.468 1062.441 C 968.276 1061.374, 968.967 1058.700, 969.004 1056.500 C 969.041 1054.300, 969.714 1051.375, 970.500 1050 C 971.286 1048.625, 971.945 1045.224, 971.965 1042.441 C 971.985 1039.593, 972.642 1036.534, 973.468 1035.441 C 974.485 1034.096, 974.946 1030.881, 974.968 1024.973 C 974.990 1019.258, 975.470 1015.774, 976.424 1014.412 C 977.284 1013.184, 978.037 1008.837, 978.324 1003.439 C 978.585 998.523, 979.294 991.350, 979.899 987.500 C 980.680 982.522, 981.070 868.660, 981.249 593.293 C 981.499 208.327, 981.489 206.078, 979.519 204.638 C 976.643 202.534, 950.988 201.642, 932.500 203.002 C 913.338 204.412, 891.002 204.799, 888.773 203.760 C 886.007 202.470, 883.250 204.946, 882.454 209.436 C 882.057 211.671, 881.787 225.088, 881.853 239.250 C 882.079 287.430, 882.032 293.497, 881.219 321.500 C 880.772 336.900, 880.314 349.613, 880.203 349.750 C 879.418 350.717, 876.982 349.626, 875.737 347.750 C 874.917 346.512, 872.814 343.925, 871.064 342 C 869.314 340.075, 867.572 337.751, 867.191 336.836 C 866.811 335.920, 860.650 329.002, 853.500 321.461 C 846.350 313.921, 840.321 307.245, 840.102 306.626 C 839.588 305.170, 835.829 301.412, 834.373 300.898 C 833.754 300.679, 828.439 296, 822.562 290.500 C 816.686 285, 811.343 280.326, 810.689 280.112 C 810.035 279.899, 807.178 277.762, 804.341 275.362 C 801.503 272.963, 798.751 271, 798.226 271 C 797.701 271, 795.748 269.657, 793.886 268.016 C 792.023 266.375, 789.998 265.025, 789.386 265.016 C 788.773 265.007, 786.748 263.657, 784.886 262.016 C 783.023 260.375, 781.007 259.025, 780.406 259.016 C 779.804 259.007, 778.004 257.838, 776.406 256.417 C 774.807 254.996, 772.263 253.377, 770.750 252.819 C 769.237 252.261, 768 251.398, 768 250.902 C 768 250.406, 767.132 250, 766.071 250 C 765.011 250, 763.468 249.325, 762.643 248.500 C 761.818 247.675, 760.497 247, 759.707 247 C 758.917 247, 756.748 245.657, 754.886 244.016 C 753.023 242.375, 750.768 241.025, 749.872 241.016 C 748.977 241.007, 747.685 240.325, 747 239.500 C 746.315 238.675, 744.965 238, 744 238 C 743.035 238, 741.685 237.325, 741 236.500 C 740.315 235.675, 739.023 234.986, 738.128 234.968 C 737.232 234.951, 735.626 234.276, 734.559 233.468 C 733.491 232.661, 731.761 232, 730.713 232 C 729.666 232, 727.389 231.259, 725.654 230.352 C 718.249 226.484, 717.096 226, 715.287 226 C 714.239 226, 712.509 225.339, 711.441 224.532 C 710.374 223.724, 708.349 223.049, 706.941 223.032 C 705.534 223.014, 703.509 222.339, 702.441 221.532 C 701.374 220.724, 699.349 220.049, 697.941 220.032 C 696.534 220.014, 694.509 219.339, 693.441 218.532 C 692.374 217.724, 689.674 217.049, 687.441 217.032 C 685.209 217.014, 682.509 216.339, 681.441 215.532 C 680.374 214.724, 677.674 214.049, 675.441 214.032 C 673.209 214.014, 670.509 213.339, 669.441 212.532 C 668.374 211.724, 665.700 211.033, 663.500 210.996 C 661.300 210.959, 658.375 210.286, 657 209.500 C 655.625 208.714, 652.189 208.055, 649.364 208.035 C 646.540 208.016, 642.940 207.328, 641.364 206.506 C 639.236 205.396, 635.014 205.011, 624.941 205.006 C 614.575 205.001, 610.925 204.654, 609.441 203.532 C 606.806 201.539, 558.117 201.281, 556.153 203.250 M 1044.553 208.572 C 1043.759 212.804, 1043.653 222.843, 1043.683 291.250 C 1043.696 319.712, 1043.707 345.475, 1043.707 348.500 C 1043.708 351.525, 1043.683 375.150, 1043.652 401 C 1043.585 456.533, 1043.595 476.066, 1043.699 503 C 1043.742 514, 1043.768 524.800, 1043.756 527 C 1043.446 585.577, 1043.786 1012.907, 1044.145 1016.245 C 1044.427 1018.855, 1044.996 1021.330, 1045.412 1021.745 C 1046.981 1023.313, 1145.359 1022.047, 1146.980 1020.438 C 1148.278 1019.149, 1148.478 990.733, 1148.602 790.158 C 1148.709 617.493, 1149.031 560.811, 1149.914 559.160 C 1150.558 557.957, 1151.344 552.366, 1151.661 546.736 C 1151.998 540.725, 1152.806 535.586, 1153.618 534.285 C 1154.378 533.067, 1155 529.666, 1155 526.726 C 1155 523.576, 1155.603 520.586, 1156.468 519.441 C 1157.276 518.374, 1157.967 515.700, 1158.004 513.500 C 1158.041 511.300, 1158.714 508.375, 1159.500 507 C 1160.286 505.625, 1160.945 502.899, 1160.965 500.941 C 1160.984 498.984, 1161.661 496.509, 1162.468 495.441 C 1163.276 494.374, 1163.951 492.444, 1163.968 491.154 C 1163.986 489.864, 1164.675 487.502, 1165.500 485.904 C 1166.325 484.307, 1167.675 481.693, 1168.500 480.096 C 1169.325 478.498, 1170 476.280, 1170 475.167 C 1170 474.054, 1170.675 472.468, 1171.500 471.643 C 1172.325 470.818, 1173 468.793, 1173 467.143 C 1173 465.493, 1173.599 463.544, 1174.331 462.812 C 1175.064 462.079, 1175.972 460.247, 1176.350 458.740 C 1176.729 457.233, 1177.480 456, 1178.019 456 C 1178.559 456, 1179 455.339, 1179 454.531 C 1179 452.439, 1183.016 444.951, 1185.715 442.010 C 1186.972 440.641, 1188 438.783, 1188 437.883 C 1188 436.982, 1188.675 435.685, 1189.500 435 C 1190.325 434.315, 1191 433.151, 1191 432.412 C 1191 431.674, 1192.350 429.532, 1194 427.653 C 1195.650 425.774, 1197.012 423.620, 1197.028 422.868 C 1197.043 422.116, 1198.393 420.188, 1200.028 418.583 C 1201.662 416.979, 1203 415.228, 1203 414.691 C 1203 414.155, 1205.135 411.192, 1207.744 408.108 C 1210.354 405.024, 1212.801 402.050, 1213.182 401.500 C 1217.234 395.653, 1237.426 375.188, 1242.132 372.160 C 1243.579 371.228, 1247.316 368.111, 1250.437 365.233 C 1253.558 362.355, 1256.649 360, 1257.308 360 C 1257.966 360, 1260.679 357.975, 1263.336 355.500 C 1265.994 353.025, 1268.628 351, 1269.190 351 C 1269.752 351, 1271.852 349.726, 1273.856 348.169 C 1275.860 346.612, 1279.525 344.339, 1282 343.119 C 1286.432 340.935, 1288.296 339.959, 1291.750 338.015 C 1292.713 337.473, 1294.850 336.405, 1296.500 335.642 C 1298.150 334.878, 1300.581 333.297, 1301.903 332.127 C 1303.225 330.957, 1305.475 329.986, 1306.903 329.968 C 1308.331 329.951, 1310.374 329.276, 1311.441 328.468 C 1312.509 327.661, 1314.003 327, 1314.763 327 C 1315.522 327, 1316.818 326.325, 1317.643 325.500 C 1318.468 324.675, 1320.406 324, 1321.949 324 C 1323.492 324, 1325.315 323.325, 1326 322.500 C 1326.685 321.675, 1328.652 320.986, 1330.372 320.968 C 1332.093 320.951, 1334.374 320.276, 1335.441 319.468 C 1336.509 318.661, 1338.534 317.986, 1339.941 317.968 C 1341.349 317.951, 1343.374 317.276, 1344.441 316.468 C 1345.509 315.661, 1347.534 314.986, 1348.941 314.968 C 1350.349 314.951, 1352.278 314.345, 1353.229 313.623 C 1354.180 312.901, 1357.498 312.227, 1360.602 312.126 C 1363.706 312.024, 1367.191 311.279, 1368.346 310.471 C 1369.728 309.502, 1372.941 309, 1377.755 309 C 1382.247 309, 1386.497 308.382, 1388.782 307.397 C 1394.474 304.944, 1460.666 304.896, 1464.401 307.343 C 1466.133 308.478, 1469.086 309, 1473.774 309 C 1478.243 309, 1481.291 309.509, 1482.559 310.468 C 1483.626 311.276, 1486.326 311.951, 1488.559 311.968 C 1490.791 311.986, 1493.491 312.661, 1494.559 313.468 C 1495.626 314.276, 1497.625 314.967, 1499 315.004 C 1500.375 315.041, 1502.625 315.714, 1504 316.500 C 1505.375 317.286, 1507.682 317.945, 1509.128 317.965 C 1510.573 317.984, 1512.315 318.675, 1513 319.500 C 1513.685 320.325, 1515.710 321, 1517.500 321 C 1519.290 321, 1521.315 321.675, 1522 322.500 C 1522.685 323.325, 1524.508 324, 1526.051 324 C 1527.594 324, 1529.532 324.675, 1530.357 325.500 C 1531.182 326.325, 1532.303 327, 1532.849 327 C 1534.153 327, 1548.342 334.153, 1549.043 335.164 C 1549.634 336.018, 1557.126 340.362, 1560.779 341.969 C 1562.032 342.521, 1564.277 344.104, 1565.769 345.486 C 1567.260 346.869, 1568.942 348, 1569.507 348 C 1570.072 348, 1572.849 350.025, 1575.679 352.500 C 1578.508 354.975, 1581.360 357, 1582.017 357 C 1583.660 357, 1617.993 391.460, 1618.028 393.144 C 1618.044 393.890, 1620.069 396.666, 1622.528 399.313 C 1624.988 401.960, 1627.007 404.660, 1627.016 405.313 C 1627.025 405.966, 1628.375 408.023, 1630.016 409.886 C 1631.657 411.748, 1633 413.777, 1633 414.396 C 1633 415.014, 1634.032 416.641, 1635.293 418.010 C 1638.383 421.366, 1651 446.655, 1651 449.494 C 1651 450.738, 1651.675 452.315, 1652.500 453 C 1653.325 453.685, 1654.014 454.977, 1654.032 455.872 C 1654.049 456.768, 1654.724 458.374, 1655.532 459.441 C 1656.339 460.509, 1657.014 462.534, 1657.032 463.941 C 1657.049 465.349, 1657.724 467.374, 1658.532 468.441 C 1659.339 469.509, 1660.014 471.534, 1660.032 472.941 C 1660.049 474.349, 1660.724 476.374, 1661.532 477.441 C 1662.339 478.509, 1663 480.678, 1663 482.263 C 1663 483.847, 1663.675 485.818, 1664.500 486.643 C 1665.472 487.614, 1666.011 490.143, 1666.032 493.821 C 1666.051 497.221, 1666.653 500.279, 1667.532 501.441 C 1668.397 502.586, 1669 505.576, 1669 508.726 C 1669 511.733, 1669.640 515.047, 1670.463 516.304 C 1671.882 518.469, 1674.007 564.988, 1673.772 588.750 C 1673.615 604.577, 1673.581 639.069, 1673.660 701 C 1673.666 705.400, 1673.657 718.225, 1673.641 729.500 C 1673.625 740.775, 1673.639 759, 1673.673 770 C 1673.746 793.832, 1673.746 794.996, 1673.678 822.500 C 1673.592 857.153, 1673.591 872.307, 1673.674 942.750 C 1673.769 1024.852, 1673.630 1018.448, 1675.345 1019.871 C 1677.713 1021.836, 1773.762 1020.997, 1775.015 1019 C 1776.506 1016.622, 1776.325 529.473, 1774.831 526.695 C 1774.167 525.459, 1773.462 518.606, 1773.218 511.015 C 1772.919 501.717, 1772.352 496.913, 1771.392 495.542 C 1770.559 494.354, 1769.986 490.932, 1769.965 487.027 C 1769.944 483.265, 1769.324 479.441, 1768.500 478 C 1767.714 476.625, 1767.039 473.250, 1767 470.500 C 1766.961 467.750, 1766.286 464.375, 1765.500 463 C 1764.714 461.625, 1764.055 458.643, 1764.035 456.372 C 1764.015 453.961, 1763.376 451.727, 1762.500 451 C 1761.607 450.259, 1761 448.073, 1761 445.600 C 1761 443.315, 1760.387 440.557, 1759.637 439.473 C 1758.888 438.388, 1758.039 436.150, 1757.752 434.500 C 1756.951 429.907, 1753.662 421.132, 1750.384 414.846 C 1749.623 413.386, 1749 411.666, 1749 411.024 C 1749 410.382, 1748.325 409.182, 1747.500 408.357 C 1746.675 407.532, 1746 405.594, 1746 404.051 C 1746 402.508, 1745.325 400.685, 1744.500 400 C 1743.675 399.315, 1743 398.283, 1743 397.705 C 1743 396.253, 1732.902 376.057, 1731.851 375.408 C 1731.383 375.119, 1731 374.116, 1731 373.181 C 1731 372.245, 1729.921 370.316, 1728.602 368.893 C 1727.283 367.471, 1725.014 363.792, 1723.560 360.718 C 1722.106 357.644, 1719.817 354.087, 1718.475 352.814 C 1717.133 351.541, 1716.014 349.825, 1715.989 349 C 1715.964 348.175, 1713.931 345.334, 1711.472 342.687 C 1709.012 340.040, 1706.998 337.340, 1706.997 336.687 C 1706.995 336.034, 1704.308 332.575, 1701.027 329 C 1697.746 325.425, 1695.047 321.985, 1695.030 321.355 C 1694.985 319.632, 1657.147 282.128, 1653.608 280.297 C 1651.918 279.423, 1648.728 276.979, 1646.518 274.865 C 1644.308 272.751, 1642.115 271.017, 1641.644 271.011 C 1641.173 271.005, 1639.083 269.650, 1637 268 C 1634.917 266.350, 1632.827 264.998, 1632.356 264.995 C 1631.885 264.993, 1630.001 263.586, 1628.170 261.870 C 1624.757 258.671, 1618.634 254.866, 1613.750 252.907 C 1612.237 252.301, 1611 251.398, 1611 250.902 C 1611 250.406, 1610.132 250, 1609.071 250 C 1608.011 250, 1606.544 249.401, 1605.812 248.669 C 1605.079 247.936, 1603.247 247.028, 1601.740 246.650 C 1600.233 246.271, 1599 245.520, 1599 244.981 C 1599 244.441, 1598.132 244, 1597.071 244 C 1596.011 244, 1594.544 243.401, 1593.812 242.669 C 1593.079 241.936, 1591.247 241.028, 1589.740 240.650 C 1588.233 240.271, 1587 239.520, 1587 238.981 C 1587 238.441, 1586.132 238, 1585.071 238 C 1584.011 238, 1582.468 237.325, 1581.643 236.500 C 1580.818 235.675, 1579.522 235, 1578.763 235 C 1578.003 235, 1576.509 234.339, 1575.441 233.532 C 1574.374 232.724, 1572.295 232.049, 1570.821 232.032 C 1569.348 232.014, 1567.468 231.325, 1566.643 230.500 C 1565.818 229.675, 1564.522 229, 1563.763 229 C 1563.003 229, 1561.509 228.339, 1560.441 227.532 C 1559.374 226.724, 1557.093 226.049, 1555.372 226.032 C 1553.652 226.014, 1551.685 225.325, 1551 224.500 C 1550.315 223.675, 1548.290 223, 1546.500 223 C 1544.710 223, 1542.685 222.325, 1542 221.500 C 1541.273 220.624, 1539.039 219.985, 1536.628 219.965 C 1534.357 219.945, 1531.375 219.286, 1530 218.500 C 1528.625 217.714, 1525.224 217.055, 1522.441 217.035 C 1519.593 217.015, 1516.534 216.358, 1515.441 215.532 C 1514.315 214.680, 1511.190 214.035, 1508 213.996 C 1504.975 213.959, 1501.375 213.286, 1500 212.500 C 1498.584 211.690, 1494.762 211.056, 1491.184 211.035 C 1487.711 211.016, 1483.886 210.468, 1482.684 209.817 C 1475.517 205.937, 1393.455 206.010, 1386.180 209.904 C 1385.053 210.507, 1381.739 211.014, 1378.816 211.032 C 1375.736 211.050, 1372.683 211.681, 1371.559 212.532 C 1370.409 213.402, 1367.353 214.013, 1364.059 214.032 C 1360.765 214.051, 1357.709 214.662, 1356.559 215.532 C 1355.491 216.339, 1352.647 217, 1350.237 217 C 1347.677 217, 1345.234 217.623, 1344.357 218.500 C 1343.516 219.341, 1341.021 220.014, 1338.679 220.032 C 1336.380 220.049, 1333.626 220.724, 1332.559 221.532 C 1331.491 222.339, 1329.086 223, 1327.213 223 C 1325.341 223, 1322.502 223.675, 1320.904 224.500 C 1319.307 225.325, 1316.693 226.675, 1315.096 227.500 C 1313.498 228.325, 1311.136 229.014, 1309.846 229.032 C 1308.556 229.049, 1306.626 229.724, 1305.559 230.532 C 1304.491 231.339, 1302.997 232, 1302.237 232 C 1301.478 232, 1300.182 232.675, 1299.357 233.500 C 1298.532 234.325, 1296.652 235.014, 1295.179 235.032 C 1293.705 235.049, 1291.626 235.724, 1290.559 236.532 C 1289.491 237.339, 1287.804 238, 1286.809 238 C 1285.814 238, 1285 238.441, 1285 238.981 C 1285 239.520, 1283.767 240.271, 1282.260 240.650 C 1280.753 241.028, 1278.921 241.936, 1278.188 242.669 C 1277.456 243.401, 1275.989 244, 1274.929 244 C 1273.868 244, 1273 244.441, 1273 244.981 C 1273 245.520, 1271.767 246.271, 1270.260 246.650 C 1268.753 247.028, 1266.921 247.936, 1266.188 248.669 C 1265.456 249.401, 1263.989 250, 1262.929 250 C 1261.868 250, 1261 250.406, 1261 250.902 C 1261 251.398, 1259.763 252.250, 1258.250 252.794 C 1256.737 253.338, 1254.600 254.644, 1253.500 255.697 C 1252.400 256.750, 1249.250 258.698, 1246.500 260.026 C 1243.750 261.354, 1239.860 263.692, 1237.856 265.220 C 1235.852 266.749, 1233.827 268.004, 1233.356 268.009 C 1232.885 268.014, 1230.250 270.027, 1227.500 272.482 C 1224.750 274.937, 1222.050 276.962, 1221.500 276.982 C 1220.950 277.002, 1218.250 279.027, 1215.500 281.482 C 1212.750 283.937, 1210.035 285.958, 1209.467 285.973 C 1208.190 286.006, 1177.780 316.314, 1177.037 318.293 C 1176.742 319.080, 1173.350 323.209, 1169.500 327.471 C 1165.650 331.732, 1162.275 335.750, 1162 336.400 C 1161.725 337.049, 1160.263 339.180, 1158.750 341.135 C 1157.237 343.089, 1155.986 345.096, 1155.968 345.594 C 1155.904 347.443, 1151.028 352, 1149.115 352 C 1148.026 352, 1146.858 351.128, 1146.520 350.063 C 1146.182 348.998, 1146.039 316.485, 1146.203 277.813 C 1146.366 239.141, 1146.136 206.938, 1145.691 206.250 C 1145.062 205.278, 1133.818 205, 1095.052 205 L 1045.223 205 1044.553 208.572 M 579.419 301.305 C 578.619 301.753, 570.659 302.370, 561.732 302.676 C 550.482 303.062, 544.820 303.657, 543.285 304.616 C 542.067 305.377, 538.467 306.014, 535.285 306.032 C 531.792 306.051, 528.731 306.645, 527.559 307.532 C 526.439 308.379, 523.452 309, 520.500 309 C 517.548 309, 514.561 309.621, 513.441 310.468 C 512.374 311.276, 509.674 311.951, 507.441 311.968 C 505.209 311.986, 502.509 312.661, 501.441 313.468 C 500.374 314.276, 498.444 314.951, 497.154 314.968 C 495.864 314.986, 493.389 315.741, 491.654 316.648 C 484.148 320.568, 483.064 321, 480.718 321 C 479.358 321, 477.685 321.675, 477 322.500 C 476.315 323.325, 474.492 324, 472.949 324 C 471.406 324, 469.544 324.599, 468.812 325.331 C 468.079 326.064, 466.247 326.972, 464.740 327.350 C 463.233 327.729, 462 328.480, 462 329.019 C 462 329.559, 461.339 330, 460.531 330 C 458.894 330, 450.805 333.955, 449.957 335.169 C 449.266 336.160, 441.354 340.648, 437.750 342.093 C 436.238 342.699, 435 343.602, 435 344.098 C 435 344.594, 434.212 345.012, 433.250 345.027 C 432.288 345.042, 429.250 347.063, 426.500 349.518 C 423.750 351.973, 421.050 353.998, 420.500 354.018 C 419.950 354.038, 417.250 356.063, 414.500 358.518 C 411.750 360.973, 408.932 362.986, 408.237 362.991 C 406.591 363.003, 369.005 400.583, 368.984 402.237 C 368.976 402.932, 366.951 405.747, 364.484 408.493 C 362.018 411.240, 360 413.875, 360 414.349 C 360 414.824, 358.650 416.917, 357 419 C 355.350 421.083, 354 423.178, 354 423.654 C 354 424.131, 352.941 425.663, 351.646 427.059 C 350.351 428.456, 347.400 433.401, 345.089 438.049 C 341.175 445.918, 340.022 448.137, 337.836 452 C 337.369 452.825, 336.733 454.175, 336.421 455 C 336.110 455.825, 335.460 457.175, 334.977 458 C 334.494 458.825, 333.142 461.525, 331.972 464 C 330.802 466.475, 329.205 469.694, 328.423 471.154 C 327.640 472.614, 327 474.334, 327 474.976 C 327 475.618, 326.325 476.818, 325.500 477.643 C 324.675 478.468, 324 480.493, 324 482.143 C 324 483.793, 323.325 485.818, 322.500 486.643 C 321.675 487.468, 321 489.729, 321 491.667 C 321 493.605, 320.391 496.386, 319.648 497.846 C 318.904 499.306, 317.554 501.919, 316.648 503.654 C 315.741 505.389, 314.986 508.539, 314.968 510.654 C 314.951 512.769, 314.276 515.374, 313.468 516.441 C 312.608 517.578, 312 520.567, 312 523.656 C 312 526.557, 311.369 530.858, 310.598 533.215 C 309.826 535.572, 308.999 543.130, 308.760 550.012 C 308.521 556.893, 307.802 563.501, 307.163 564.696 C 305.628 567.563, 305.553 606.296, 307.076 609.142 C 307.668 610.248, 308.395 617.081, 308.692 624.327 C 309.045 632.972, 309.707 638.261, 310.615 639.715 C 311.377 640.933, 312 644.334, 312 647.274 C 312 650.424, 312.603 653.414, 313.468 654.559 C 314.276 655.626, 314.951 658.326, 314.968 660.559 C 314.986 662.791, 315.661 665.491, 316.468 666.559 C 317.276 667.626, 317.951 669.651, 317.968 671.059 C 317.986 672.466, 318.661 674.491, 319.468 675.559 C 320.276 676.626, 320.951 678.907, 320.968 680.628 C 320.986 682.348, 321.675 684.315, 322.500 685 C 323.325 685.685, 324 687.454, 324 688.931 C 324 690.409, 324.661 692.491, 325.468 693.559 C 326.276 694.626, 326.951 696.506, 326.968 697.735 C 326.995 699.635, 331.094 708.966, 334.113 714 C 334.608 714.825, 335.267 716.175, 335.579 717 C 335.890 717.825, 336.565 719.175, 337.079 720 C 337.592 720.825, 338.267 722.175, 338.579 723 C 338.890 723.825, 339.543 725.175, 340.031 726 C 340.518 726.825, 342.112 729.975, 343.572 733 C 345.032 736.025, 347.046 739.400, 348.047 740.500 C 349.048 741.600, 350.366 743.625, 350.976 745 C 352.520 748.479, 354.056 750.954, 357.250 755.110 C 358.762 757.078, 360 759.181, 360 759.782 C 360 760.383, 362.012 763.040, 364.472 765.687 C 366.931 768.334, 368.956 771.103, 368.972 771.840 C 369.012 773.747, 412.454 817, 414.329 817 C 415.183 817, 417.936 819.025, 420.447 821.500 C 422.958 823.975, 425.572 826.007, 426.256 826.016 C 426.940 826.025, 429.023 827.375, 430.886 829.016 C 432.748 830.657, 434.777 832, 435.396 832 C 436.014 832, 437.684 833.079, 439.107 834.398 C 440.529 835.717, 444.124 837.986, 447.096 839.440 C 450.068 840.893, 453.175 842.509, 454 843.029 C 454.825 843.549, 458.875 845.575, 463 847.531 C 467.125 849.488, 471.175 851.470, 472 851.937 C 477.024 854.781, 486.243 859, 487.431 859 C 488.202 859, 489.001 859.502, 489.205 860.115 C 489.409 860.727, 491.295 861.418, 493.395 861.650 C 495.495 861.881, 497.873 862.730, 498.678 863.535 C 499.511 864.368, 502.001 865, 504.449 865 C 507.057 865, 509.246 865.592, 510 866.500 C 510.744 867.396, 512.930 868, 515.431 868 C 517.734 868, 520.491 868.661, 521.559 869.468 C 522.626 870.276, 524.850 870.965, 526.500 871 C 528.150 871.035, 530.374 871.724, 531.441 872.532 C 532.612 873.418, 535.608 874, 538.991 874 C 542.076 874, 545.102 874.502, 545.716 875.116 C 546.354 875.754, 551.841 876.413, 558.558 876.657 C 565.008 876.891, 571.182 877.562, 572.279 878.149 C 575.006 879.609, 605.080 879.563, 607.823 878.095 C 608.975 877.478, 615.162 876.794, 621.572 876.574 C 628.077 876.351, 633.706 875.694, 634.313 875.087 C 634.911 874.489, 637.897 873.984, 640.950 873.965 C 644.002 873.945, 647.625 873.286, 649 872.500 C 650.375 871.714, 653.101 871.055, 655.059 871.035 C 657.016 871.016, 659.491 870.339, 660.559 869.532 C 661.626 868.724, 664.326 868.049, 666.559 868.032 C 668.791 868.014, 671.491 867.339, 672.559 866.532 C 673.626 865.724, 676.326 865.049, 678.559 865.032 C 680.791 865.014, 683.491 864.339, 684.559 863.532 C 685.626 862.724, 687.651 862.049, 689.059 862.032 C 690.466 862.014, 692.491 861.339, 693.559 860.532 C 694.626 859.724, 696.705 859.049, 698.179 859.032 C 699.652 859.014, 701.532 858.325, 702.357 857.500 C 703.182 856.675, 704.478 856, 705.237 856 C 705.997 856, 707.491 855.339, 708.559 854.532 C 709.626 853.724, 711.232 853.049, 712.128 853.032 C 713.023 853.014, 714.315 852.325, 715 851.500 C 715.685 850.675, 716.942 850, 717.794 850 C 718.646 850, 720.053 849.409, 720.921 848.688 C 721.790 847.966, 724.525 846.531, 727 845.500 C 729.475 844.469, 732.210 843.034, 733.079 842.312 C 733.947 841.591, 735.354 841, 736.206 841 C 737.058 841, 738.315 840.325, 739 839.500 C 739.685 838.675, 741.104 838, 742.154 838 C 743.204 838, 744.322 837.325, 744.638 836.500 C 744.955 835.675, 745.953 834.982, 746.857 834.959 C 747.761 834.937, 750.058 833.587, 751.962 831.959 C 753.866 830.332, 755.976 829, 756.649 829 C 757.323 829, 760.040 826.988, 762.687 824.528 C 765.334 822.069, 767.956 820.044, 768.514 820.028 C 769.072 820.013, 772.519 817.300, 776.176 814 C 779.832 810.700, 783.244 808, 783.758 808 C 785.078 808, 816.992 775.996, 817.037 774.627 C 817.057 774.007, 819.753 770.575, 823.027 767 C 826.301 763.425, 828.992 760.050, 829.006 759.500 C 829.020 758.950, 830.375 756.977, 832.016 755.114 C 833.657 753.252, 835 751.223, 835 750.604 C 835 749.986, 836.079 748.316, 837.398 746.893 C 838.717 745.471, 840.994 741.876, 842.458 738.904 C 846.621 730.451, 849.667 725.190, 851.404 723.453 C 852.282 722.576, 853 720.989, 853 719.929 C 853 718.868, 853.441 718, 853.981 718 C 854.520 718, 855.271 716.767, 855.650 715.260 C 856.028 713.753, 856.936 711.921, 857.669 711.188 C 858.401 710.456, 859 708.946, 859 707.833 C 859 706.048, 860.337 702.879, 863.148 698 C 863.624 697.175, 864.270 695.825, 864.585 695 C 864.899 694.175, 865.797 692.306, 866.578 690.846 C 867.360 689.386, 868.014 687.136, 868.032 685.846 C 868.049 684.556, 868.724 682.626, 869.532 681.559 C 870.339 680.491, 871.016 678.016, 871.035 676.059 C 871.055 674.101, 871.714 671.375, 872.500 670 C 873.286 668.625, 873.945 666.230, 873.965 664.679 C 873.984 663.127, 874.675 661.182, 875.500 660.357 C 876.472 659.386, 877.011 656.857, 877.032 653.179 C 877.051 649.779, 877.653 646.721, 878.532 645.559 C 879.532 644.236, 880.011 641.050, 880.035 635.559 C 880.058 630.466, 880.597 626.580, 881.500 625 C 883.642 621.253, 883.670 561.269, 881.532 558.441 C 880.680 557.315, 880.035 554.190, 879.996 551 C 879.959 547.975, 879.286 544.375, 878.500 543 C 877.714 541.625, 877.055 538.224, 877.035 535.441 C 877.015 532.593, 876.358 529.534, 875.532 528.441 C 874.724 527.374, 874.049 524.688, 874.032 522.473 C 874.014 520.257, 873.387 517.557, 872.637 516.473 C 871.888 515.388, 871.039 513.150, 870.752 511.500 C 870.130 507.935, 868.313 502.590, 866.389 498.669 C 865.625 497.112, 865 494.835, 865 493.610 C 865 492.385, 864.339 490.509, 863.532 489.441 C 862.724 488.374, 862.049 486.768, 862.032 485.872 C 862.014 484.977, 861.325 483.685, 860.500 483 C 859.675 482.315, 859 480.492, 859 478.949 C 859 477.406, 858.401 475.544, 857.669 474.812 C 856.936 474.079, 856.028 472.247, 855.650 470.740 C 855.271 469.233, 854.520 468, 853.981 468 C 853.441 468, 853 467.339, 853 466.531 C 853 465.013, 849.109 456.885, 847.958 456 C 847.600 455.725, 847.005 454.262, 846.635 452.750 C 846.265 451.238, 845.520 450, 844.981 450 C 844.441 450, 844 449.169, 844 448.153 C 844 447.137, 843.056 445.225, 841.902 443.903 C 840.749 442.581, 838.997 439.925, 838.009 438 C 837.021 436.075, 835.265 433.643, 834.106 432.595 C 832.948 431.547, 832 430.146, 832 429.481 C 832 428.815, 830.657 426.748, 829.016 424.886 C 827.375 423.023, 826.020 421.050, 826.006 420.500 C 825.992 419.950, 823.301 416.575, 820.027 413 C 816.753 409.425, 814.057 405.890, 814.037 405.145 C 813.990 403.431, 776.435 366.003, 774.749 365.991 C 774.062 365.986, 771.250 363.973, 768.500 361.518 C 765.750 359.063, 763.023 357.042, 762.440 357.027 C 761.857 357.012, 760.057 355.713, 758.440 354.139 C 756.823 352.566, 754.600 350.993, 753.500 350.645 C 752.400 350.297, 750.193 348.884, 748.594 347.506 C 746.996 346.128, 745.196 344.993, 744.594 344.984 C 743.993 344.975, 741.977 343.625, 740.114 341.984 C 738.252 340.343, 735.927 339, 734.948 339 C 733.968 339, 733.017 338.638, 732.833 338.195 C 732.447 337.263, 712.273 327, 710.826 327 C 710.293 327, 709.182 326.325, 708.357 325.500 C 707.532 324.675, 705.594 324, 704.051 324 C 702.508 324, 700.685 323.325, 700 322.500 C 699.315 321.675, 698.023 320.986, 697.128 320.968 C 696.232 320.951, 694.626 320.276, 693.559 319.468 C 692.491 318.661, 690.466 317.986, 689.059 317.968 C 687.651 317.951, 685.626 317.276, 684.559 316.468 C 683.491 315.661, 681.166 315, 679.392 315 C 677.618 315, 675.995 314.484, 675.785 313.854 C 675.575 313.224, 673.197 312.511, 670.500 312.270 C 667.804 312.029, 664.688 311.194, 663.576 310.416 C 662.449 309.626, 659.206 309, 656.242 309 C 653.320 309, 649.933 308.375, 648.715 307.612 C 647.490 306.845, 642.658 306.004, 637.910 305.733 C 633.185 305.462, 628.377 304.737, 627.225 304.121 C 626.074 303.504, 621.389 302.962, 616.816 302.916 C 612.242 302.869, 605.800 302.423, 602.500 301.923 C 594.221 300.670, 581.179 300.321, 579.419 301.305 M 1767.567 1128.669 C 1765.404 1128.930, 1762.717 1129.785, 1761.595 1130.571 C 1760.473 1131.357, 1758.755 1132, 1757.777 1132 C 1756.800 1132, 1756 1132.420, 1756 1132.933 C 1756 1133.446, 1754.987 1134.169, 1753.750 1134.541 C 1751.391 1135.250, 1744 1141.823, 1744 1143.212 C 1744 1143.655, 1742.650 1145.881, 1741 1148.159 C 1739.023 1150.888, 1737.988 1153.528, 1737.965 1155.900 C 1737.945 1157.880, 1737.286 1160.625, 1736.500 1162 C 1735.698 1163.403, 1735.071 1167.132, 1735.071 1170.500 C 1735.071 1173.868, 1735.698 1177.597, 1736.500 1179 C 1737.286 1180.375, 1737.945 1183.087, 1737.965 1185.027 C 1738.009 1189.465, 1739.660 1191.942, 1747.781 1199.750 C 1752.584 1204.368, 1755.009 1206, 1757.069 1206 C 1758.602 1206, 1760.532 1206.675, 1761.357 1207.500 C 1762.182 1208.325, 1764.153 1209, 1765.737 1209 C 1767.322 1209, 1769.491 1209.661, 1770.559 1210.468 C 1771.626 1211.276, 1773.651 1211.951, 1775.059 1211.968 C 1776.466 1211.986, 1778.491 1212.661, 1779.559 1213.468 C 1780.626 1214.276, 1782.232 1214.951, 1783.128 1214.968 C 1784.023 1214.986, 1785.315 1215.675, 1786 1216.500 C 1786.685 1217.325, 1787.990 1218, 1788.900 1218 C 1795.648 1218, 1798.218 1235.488, 1792.244 1240.750 C 1790.839 1241.987, 1789.139 1243, 1788.467 1243 C 1787.795 1243, 1786.685 1243.675, 1786 1244.500 C 1784.275 1246.578, 1770.178 1246.602, 1767.441 1244.532 C 1766.374 1243.724, 1764.523 1243.049, 1763.330 1243.032 C 1761.059 1242.999, 1746.950 1236.277, 1745.887 1234.722 C 1743.555 1231.310, 1735 1241.118, 1735 1247.204 C 1735 1248.264, 1734.540 1249.992, 1733.977 1251.043 C 1732.134 1254.487, 1737.060 1258.955, 1747.250 1263.082 C 1748.763 1263.695, 1750 1264.602, 1750 1265.098 C 1750 1265.594, 1751.013 1266.014, 1752.250 1266.032 C 1753.487 1266.049, 1755.374 1266.724, 1756.441 1267.532 C 1759.249 1269.655, 1788.620 1269.602, 1791.441 1267.468 C 1792.509 1266.661, 1794.632 1266, 1796.158 1266 C 1798.264 1266, 1800.706 1264.248, 1806.265 1258.750 C 1817.923 1247.221, 1820.332 1239.735, 1818.535 1220.623 C 1818.172 1216.758, 1817.256 1213.113, 1816.444 1212.301 C 1815.650 1211.507, 1815 1209.766, 1815 1208.431 C 1815 1205.834, 1808.631 1198, 1806.519 1198 C 1805.833 1198, 1803.748 1196.657, 1801.886 1195.016 C 1800.023 1193.375, 1797.349 1192.025, 1795.941 1192.016 C 1794.534 1192.007, 1792.509 1191.339, 1791.441 1190.532 C 1790.374 1189.724, 1788.375 1189.033, 1787 1188.996 C 1785.625 1188.959, 1783.375 1188.286, 1782 1187.500 C 1780.625 1186.714, 1778.318 1186.055, 1776.872 1186.035 C 1775.427 1186.016, 1773.685 1185.325, 1773 1184.500 C 1772.315 1183.675, 1770.975 1183, 1770.023 1183 C 1767.120 1183, 1757.993 1172.569, 1758.043 1169.310 C 1758.204 1158.892, 1777.807 1147.605, 1785.559 1153.468 C 1786.626 1154.276, 1788.907 1154.951, 1790.628 1154.968 C 1792.348 1154.986, 1794.315 1155.675, 1795 1156.500 C 1795.685 1157.325, 1797.035 1158, 1798 1158 C 1798.965 1158, 1800.315 1158.675, 1801 1159.500 C 1802.732 1161.587, 1809 1161.512, 1809 1159.404 C 1809 1158.527, 1809.675 1156.502, 1810.500 1154.904 C 1811.325 1153.307, 1812.675 1150.693, 1813.500 1149.096 C 1816.676 1142.947, 1813.849 1135, 1808.488 1135 C 1807.804 1135, 1806.685 1134.325, 1806 1133.500 C 1805.315 1132.675, 1803.560 1132, 1802.100 1132 C 1800.640 1132, 1798.478 1131.323, 1797.297 1130.496 C 1795.045 1128.918, 1775.486 1127.717, 1767.567 1128.669 M 967.032 1133.750 C 967.049 1136.362, 967.724 1139.374, 968.532 1140.441 C 969.339 1141.509, 970 1144.010, 970 1146 C 970 1147.990, 970.661 1150.491, 971.468 1151.559 C 972.276 1152.626, 972.951 1154.907, 972.968 1156.628 C 972.986 1158.348, 973.675 1160.315, 974.500 1161 C 975.325 1161.685, 976 1163.122, 976 1164.194 C 976 1165.266, 976.675 1166.818, 977.500 1167.643 C 978.325 1168.468, 979.014 1170.348, 979.032 1171.821 C 979.049 1173.295, 979.724 1175.374, 980.532 1176.441 C 981.339 1177.509, 982 1179.834, 982 1181.608 C 982 1183.382, 982.516 1185.005, 983.146 1185.215 C 983.776 1185.425, 984.489 1187.803, 984.730 1190.500 C 984.971 1193.196, 985.806 1196.312, 986.584 1197.424 C 987.363 1198.535, 988 1200.640, 988 1202.100 C 988 1203.560, 988.675 1205.315, 989.500 1206 C 990.325 1206.685, 991.014 1208.652, 991.032 1210.372 C 991.049 1212.093, 991.724 1214.374, 992.532 1215.441 C 993.339 1216.509, 994.014 1218.534, 994.032 1219.941 C 994.049 1221.349, 994.724 1223.374, 995.532 1224.441 C 996.339 1225.509, 997.014 1227.534, 997.032 1228.941 C 997.049 1230.349, 997.724 1232.374, 998.532 1233.441 C 999.339 1234.509, 1000.014 1237.209, 1000.032 1239.441 C 1000.049 1241.674, 1000.724 1244.374, 1001.532 1245.441 C 1002.339 1246.509, 1003 1248.003, 1003 1248.763 C 1003 1249.522, 1003.675 1250.818, 1004.500 1251.643 C 1005.325 1252.468, 1006 1254.811, 1006 1256.849 C 1006 1265.042, 1010.682 1268.393, 1022.008 1268.305 C 1030.980 1268.235, 1035 1266.888, 1035 1263.951 C 1035 1263.088, 1035.661 1261.509, 1036.468 1260.441 C 1037.276 1259.374, 1037.951 1257.444, 1037.968 1256.154 C 1037.986 1254.864, 1038.635 1252.614, 1039.410 1251.154 C 1042.465 1245.406, 1044 1241.063, 1044 1238.170 C 1044 1236.505, 1044.675 1234.468, 1045.500 1233.643 C 1046.325 1232.818, 1047 1230.847, 1047 1229.263 C 1047 1227.678, 1047.661 1225.509, 1048.468 1224.441 C 1049.276 1223.374, 1049.967 1221.375, 1050.004 1220 C 1050.041 1218.625, 1050.714 1216.375, 1051.500 1215 C 1052.286 1213.625, 1052.945 1210.994, 1052.965 1209.154 C 1052.984 1207.314, 1053.635 1204.614, 1054.410 1203.154 C 1057.465 1197.406, 1059 1193.063, 1059 1190.170 C 1059 1188.505, 1059.675 1186.468, 1060.500 1185.643 C 1061.325 1184.818, 1062.014 1183.323, 1062.032 1182.321 C 1062.049 1181.320, 1062.724 1179.626, 1063.532 1178.559 C 1064.339 1177.491, 1065 1174.990, 1065 1173 C 1065 1171.010, 1065.661 1168.509, 1066.468 1167.441 C 1067.276 1166.374, 1067.951 1164.444, 1067.968 1163.154 C 1067.998 1160.928, 1068.448 1159.821, 1072.352 1152.346 C 1073.259 1150.611, 1074 1147.673, 1074 1145.818 C 1074 1143.963, 1074.701 1141.444, 1075.557 1140.221 C 1076.536 1138.825, 1077.001 1136.418, 1076.807 1133.749 L 1076.500 1129.500 1067.608 1129.209 C 1057.528 1128.879, 1054 1130.666, 1054 1136.103 C 1054 1137.618, 1053.438 1139.452, 1052.750 1140.179 C 1050.996 1142.033, 1048.904 1147.695, 1048.014 1153 C 1047.599 1155.475, 1046.076 1159.860, 1044.630 1162.745 C 1043.183 1165.630, 1042 1169.385, 1042 1171.091 C 1042 1172.796, 1041.325 1175.498, 1040.500 1177.096 C 1039.675 1178.693, 1038.325 1181.307, 1037.500 1182.904 C 1036.675 1184.502, 1036 1187.395, 1036 1189.333 C 1036 1191.271, 1035.325 1193.532, 1034.500 1194.357 C 1033.675 1195.182, 1033 1197.153, 1033 1198.737 C 1033 1200.322, 1032.339 1202.491, 1031.532 1203.559 C 1030.724 1204.626, 1030.049 1206.651, 1030.032 1208.059 C 1030.014 1209.466, 1029.339 1211.491, 1028.532 1212.559 C 1027.724 1213.626, 1027.049 1215.705, 1027.032 1217.179 C 1026.995 1220.243, 1024.460 1223.243, 1022.282 1222.800 C 1020.832 1222.505, 1018.692 1217.767, 1017.010 1211.128 C 1016.540 1209.273, 1015.670 1207.270, 1015.078 1206.678 C 1014.485 1206.085, 1014 1204.426, 1014 1202.991 C 1014 1201.556, 1013.339 1199.509, 1012.532 1198.441 C 1011.724 1197.374, 1011.049 1195.349, 1011.032 1193.941 C 1011.014 1192.534, 1010.339 1190.509, 1009.532 1189.441 C 1008.724 1188.374, 1008.049 1186.349, 1008.032 1184.941 C 1008.014 1183.534, 1007.339 1181.509, 1006.532 1180.441 C 1005.724 1179.374, 1005.035 1177.150, 1005 1175.500 C 1004.965 1173.850, 1004.276 1171.626, 1003.468 1170.559 C 1002.661 1169.491, 1001.986 1167.466, 1001.968 1166.059 C 1001.951 1164.651, 1001.276 1162.626, 1000.468 1161.559 C 999.661 1160.491, 998.986 1157.791, 998.968 1155.559 C 998.951 1153.326, 998.276 1150.626, 997.468 1149.559 C 996.661 1148.491, 996 1146.665, 996 1145.500 C 996 1144.335, 995.339 1142.509, 994.532 1141.441 C 993.724 1140.374, 993.049 1138.116, 993.032 1136.424 C 992.970 1130.494, 989.883 1129, 977.686 1129 L 967 1129 967.032 1133.750 M 1091.623 1131.453 C 1090.168 1133.674, 1090 1140.679, 1090 1199.291 L 1090 1264.651 1092.275 1266.789 C 1094.535 1268.912, 1094.800 1268.923, 1130.525 1268.399 C 1156.962 1268.011, 1167.010 1267.538, 1168.424 1266.614 C 1170.145 1265.489, 1170.324 1264.265, 1170.117 1254.990 C 1169.989 1249.289, 1169.660 1244.258, 1169.384 1243.812 C 1169.108 1243.365, 1156.582 1243, 1141.548 1243 C 1119.153 1243, 1114.118 1242.749, 1113.681 1241.612 C 1113.062 1239.999, 1113.757 1212.910, 1114.434 1212.232 C 1115.418 1211.249, 1133.174 1210.017, 1145.500 1210.077 C 1164.058 1210.168, 1164 1210.203, 1164 1199.025 C 1164 1185.412, 1165.215 1186, 1137.107 1186 C 1117.154 1186, 1114.136 1185.797, 1113.607 1184.418 C 1113.273 1183.548, 1113 1177.759, 1113 1171.553 C 1113 1161.675, 1113.257 1159.944, 1115.060 1157.651 L 1117.119 1155.033 1143.310 1154.766 L 1169.500 1154.500 1169.500 1142 L 1169.500 1129.500 1131.373 1129.238 L 1093.245 1128.976 1091.623 1131.453 M 1193.750 1131.083 C 1192.120 1132.868, 1192 1137.532, 1192 1198.845 C 1192 1274.853, 1190.821 1267.476, 1203.089 1268.219 C 1215.905 1268.996, 1215 1272.116, 1215 1227.149 C 1215 1201.126, 1215.339 1188.908, 1216.074 1188.454 C 1217.430 1187.616, 1221.995 1191.819, 1222.016 1193.924 C 1222.025 1194.791, 1223.375 1197.023, 1225.016 1198.886 C 1226.657 1200.748, 1228 1202.777, 1228 1203.396 C 1228 1204.014, 1229.079 1205.684, 1230.398 1207.107 C 1231.717 1208.529, 1233.956 1212.124, 1235.373 1215.096 C 1236.790 1218.068, 1239.086 1221.807, 1240.475 1223.406 C 1241.864 1225.004, 1243 1226.739, 1243 1227.262 C 1243 1227.784, 1244.350 1229.917, 1246 1232 C 1247.650 1234.083, 1249 1236.511, 1249 1237.394 C 1249 1238.277, 1249.406 1239, 1249.902 1239 C 1250.398 1239, 1251.250 1240.237, 1251.794 1241.750 C 1252.338 1243.263, 1253.642 1245.400, 1254.692 1246.500 C 1255.743 1247.600, 1257.904 1251.076, 1259.497 1254.224 C 1261.089 1257.372, 1263.428 1261.154, 1264.696 1262.629 C 1265.963 1264.104, 1267 1265.864, 1267 1266.539 C 1267 1268.271, 1270.366 1268.971, 1278.775 1268.986 C 1285.716 1268.999, 1286.095 1268.879, 1287.049 1266.370 C 1287.661 1264.761, 1288.101 1244.101, 1288.182 1213.120 C 1288.255 1185.279, 1288.497 1156.913, 1288.719 1150.084 C 1288.988 1141.801, 1288.697 1136.226, 1287.843 1133.334 L 1286.563 1129 1276.907 1129 L 1267.250 1129 1266.594 1132.250 C 1266.234 1134.037, 1265.916 1149.225, 1265.888 1166 C 1265.827 1202.469, 1265.510 1207, 1263.024 1207 C 1261.138 1207, 1254 1199.550, 1254 1197.582 C 1254 1196.945, 1252.668 1194.866, 1251.041 1192.962 C 1249.413 1191.058, 1248.063 1188.713, 1248.041 1187.750 C 1248.018 1186.787, 1247.580 1186, 1247.067 1186 C 1246.554 1186, 1245.819 1184.987, 1245.434 1183.750 C 1245.048 1182.513, 1243.443 1179.860, 1241.866 1177.856 C 1240.290 1175.852, 1239 1173.682, 1239 1173.035 C 1239 1172.387, 1238.325 1171.182, 1237.500 1170.357 C 1236.675 1169.532, 1236 1167.989, 1236 1166.929 C 1236 1165.868, 1235.594 1165, 1235.098 1165 C 1234.602 1165, 1233.699 1163.763, 1233.093 1162.250 C 1231.457 1158.170, 1227.417 1151.274, 1225.596 1149.453 C 1224.718 1148.576, 1224 1147.310, 1224 1146.641 C 1224 1145.972, 1222.668 1143.866, 1221.041 1141.962 C 1219.413 1140.058, 1218.063 1137.892, 1218.041 1137.150 C 1218.018 1136.408, 1216.470 1134.270, 1214.600 1132.400 C 1211.291 1129.091, 1210.990 1129.002, 1203.350 1129.083 C 1196.958 1129.151, 1195.175 1129.523, 1193.750 1131.083 M 1303.477 1131.250 C 1303.169 1132.487, 1303.048 1138.225, 1303.208 1144 L 1303.500 1154.500 1319.197 1154.775 C 1334.613 1155.045, 1334.930 1155.095, 1336.866 1157.557 C 1338.771 1159.978, 1338.841 1161.875, 1338.899 1212.674 L 1338.959 1265.283 1341.206 1266.857 C 1344.135 1268.909, 1357.755 1268.568, 1360 1266.387 C 1361.290 1265.134, 1361.535 1257.420, 1361.752 1211.215 C 1361.890 1181.672, 1362.213 1156.938, 1362.470 1156.250 C 1362.817 1155.321, 1367.059 1155, 1378.969 1155 C 1391.093 1155, 1395.016 1154.695, 1395.064 1153.750 C 1395.099 1153.063, 1395.358 1149.125, 1395.640 1145 C 1395.921 1140.875, 1395.865 1135.588, 1395.515 1133.250 L 1394.877 1129 1349.458 1129 L 1304.038 1129 1303.477 1131.250 M 1409.200 1130.200 C 1407.247 1132.153, 1407.563 1221.838, 1409.532 1224.441 C 1410.423 1225.619, 1411 1228.617, 1411 1232.069 C 1411 1235.903, 1411.488 1238.161, 1412.500 1239 C 1413.325 1239.685, 1414 1241.035, 1414 1242 C 1414 1242.965, 1414.675 1244.315, 1415.500 1245 C 1416.325 1245.685, 1417 1247.126, 1417 1248.204 C 1417 1251.262, 1432.670 1266, 1435.923 1266 C 1437.370 1266, 1439.668 1266.787, 1441.027 1267.750 C 1444.529 1270.228, 1466.506 1270.160, 1470.076 1267.659 C 1471.379 1266.747, 1473.712 1266, 1475.261 1266 C 1479.468 1266, 1497 1248.346, 1497 1244.110 C 1497 1242.478, 1497.655 1240.488, 1498.455 1239.687 C 1499.256 1238.887, 1500.091 1235.941, 1500.312 1233.141 C 1500.533 1230.341, 1501.167 1227.476, 1501.722 1226.775 C 1502.803 1225.408, 1504.293 1136.633, 1503.317 1131.750 L 1502.767 1129 1493.383 1129 C 1478.744 1129, 1480 1124.439, 1480 1177.596 C 1480 1224.400, 1480.149 1222.514, 1475.856 1230 C 1475.382 1230.825, 1474.587 1232.400, 1474.087 1233.500 C 1471.686 1238.787, 1466.386 1242.721, 1460.711 1243.430 C 1454.555 1244.200, 1448.288 1243.388, 1446 1241.525 C 1445.175 1240.854, 1443.706 1240.022, 1442.735 1239.678 C 1441.764 1239.333, 1440.519 1238.027, 1439.968 1236.776 C 1439.417 1235.524, 1437.849 1232.517, 1436.483 1230.093 C 1435.023 1227.502, 1434 1224.087, 1434 1221.808 C 1434 1219.675, 1433.292 1216.850, 1432.427 1215.529 C 1431.152 1213.583, 1430.973 1211.368, 1431.482 1203.815 C 1431.828 1198.692, 1432.323 1180.599, 1432.583 1163.610 C 1433.155 1126.287, 1434.138 1129, 1420.045 1129 C 1413.877 1129, 1409.967 1129.433, 1409.200 1130.200 M 1528.667 1129.667 C 1528.300 1130.033, 1528 1160.674, 1528 1197.756 L 1528 1265.179 1530.250 1267.056 C 1532.686 1269.088, 1547.096 1269.859, 1549.864 1268.105 C 1550.940 1267.424, 1551.196 1263.603, 1551.076 1250.019 C 1550.971 1238.209, 1551.288 1232.358, 1552.084 1231.399 C 1552.945 1230.361, 1555.982 1230, 1563.841 1230 C 1575.614 1230, 1579 1231.795, 1579 1238.033 C 1579 1239.530, 1579.675 1241.315, 1580.500 1242 C 1581.325 1242.685, 1582 1244.035, 1582 1245 C 1582 1245.965, 1582.675 1247.315, 1583.500 1248 C 1584.325 1248.685, 1585 1250.063, 1585 1251.063 C 1585 1252.064, 1585.457 1253.164, 1586.015 1253.509 C 1586.573 1253.854, 1587.672 1255.673, 1588.457 1257.551 C 1589.241 1259.428, 1591.613 1262.660, 1593.726 1264.732 L 1597.569 1268.500 1607.035 1268.358 L 1616.500 1268.215 1616.801 1264.772 C 1616.992 1262.579, 1616.538 1260.862, 1615.551 1260.042 C 1614.698 1259.334, 1614 1257.910, 1614 1256.878 C 1614 1255.845, 1613.559 1255, 1613.019 1255 C 1612.480 1255, 1611.729 1253.767, 1611.350 1252.260 C 1610.972 1250.753, 1610.064 1248.921, 1609.331 1248.188 C 1608.599 1247.456, 1608 1245.989, 1608 1244.929 C 1608 1243.868, 1607.594 1243, 1607.098 1243 C 1606.602 1243, 1605.708 1241.763, 1605.112 1240.250 C 1604.516 1238.737, 1603.629 1236.825, 1603.139 1236 C 1600.775 1232.014, 1598 1226.105, 1598 1225.058 C 1598 1224.415, 1600.868 1221.021, 1604.374 1217.515 C 1607.880 1214.009, 1611.038 1209.984, 1611.393 1208.571 C 1611.748 1207.157, 1612.480 1206, 1613.019 1206 C 1613.559 1206, 1614 1205.200, 1614 1204.223 C 1614 1203.245, 1614.630 1201.546, 1615.400 1200.446 C 1619.075 1195.199, 1618.939 1159.539, 1615.230 1155.830 C 1614.553 1155.153, 1614 1153.893, 1614 1153.028 C 1614 1152.163, 1612.729 1149.891, 1611.175 1147.978 C 1609.621 1146.065, 1608.060 1143.713, 1607.706 1142.750 C 1607.352 1141.787, 1606.486 1140.998, 1605.781 1140.995 C 1605.077 1140.993, 1603.150 1139.737, 1601.500 1138.206 C 1596.376 1133.448, 1593.685 1132, 1589.969 1132 C 1587.996 1132, 1585.509 1131.339, 1584.441 1130.532 C 1582.401 1128.989, 1530.155 1128.178, 1528.667 1129.667 M 1639.667 1129.667 C 1639.300 1130.033, 1639 1160.674, 1639 1197.756 L 1639 1265.179 1641.179 1266.944 C 1644.242 1269.424, 1713.343 1269.274, 1716.904 1266.780 C 1718.933 1265.358, 1719.052 1264.575, 1718.785 1254.381 L 1718.500 1243.500 1690.500 1243 L 1662.500 1242.500 1662.221 1228.079 C 1662.041 1218.756, 1662.323 1213.276, 1663.019 1212.579 C 1664.422 1211.172, 1678.190 1210.070, 1694.500 1210.060 C 1701.650 1210.055, 1708.069 1209.672, 1708.764 1209.208 C 1710.268 1208.205, 1711.151 1191.674, 1709.883 1188.250 C 1709.052 1186.006, 1708.985 1186, 1686.132 1186 C 1666.156 1186, 1663.136 1185.797, 1662.607 1184.418 C 1662.273 1183.548, 1662 1177.552, 1662 1171.093 C 1662 1154.034, 1660.270 1155, 1690.814 1155 C 1720.356 1155, 1719 1155.617, 1719 1142.174 C 1719 1128.052, 1721.997 1129, 1677.352 1129 C 1656.992 1129, 1640.033 1129.300, 1639.667 1129.667 M 1553.395 1157.515 L 1550.880 1160.029 1551.437 1180.183 C 1552.140 1205.618, 1551.026 1204, 1567.827 1204 L 1580.345 1204 1587.172 1197.172 L 1594 1190.345 1594 1180.077 C 1594 1172.210, 1593.594 1169.071, 1592.265 1166.654 C 1589.854 1162.271, 1585.894 1158, 1584.241 1158 C 1583.480 1158, 1582.182 1157.325, 1581.357 1156.500 C 1580.191 1155.334, 1577.193 1155, 1567.883 1155 C 1556.426 1155, 1555.801 1155.108, 1553.395 1157.515" fill="#08090a" fill-rule="evenodd"/></svg>